<svg width="33" height="29" viewBox="0 0 33 29" fill="none" xmlns="http://www.w3.org/2000/svg">
<g clip-path="url(#clip0_43_70)">
<path d="M17.88 20.61H13.9L15.52 15.86L10.01 22.11H12.41H13.39H14.9L14.45 23.43L12.76 28.36L18.28 22.11L19.6 20.61H17.88Z" fill="#F5F5F5"/>
<path d="M3.96999 12.7L5.03999 9.59003L1.42999 13.68H2.99999H3.63999H4.62999L4.32999 14.55L3.22999 17.78L6.83999 13.68L7.70999 12.7H6.57999H3.96999Z" fill="#F5F5F5"/>
<path d="M31.89 14.27C31.4 12.39 29.7 11.01 27.67 11.01C27.46 11.01 27.26 11.03 27.06 11.06C27 11.06 26.94 11.07 26.88 11.09C26.13 9.10997 24.42 7.59997 22.32 7.12997C21.87 7.02997 21.4 6.96997 20.92 6.96997C20.69 6.96997 20.46 6.98997 20.24 7.00997C19.55 7.07997 18.89 7.26997 18.28 7.54997C16.75 8.24997 15.54 9.52997 14.95 11.11C14.67 10.95 14.34 10.86 14 10.86C13.84 10.86 13.69 10.88 13.55 10.92C12.8 11.1 12.22 11.72 12.1 12.5H12.08C10.64 12.5 9.41002 13.34 8.82002 14.55C8.59002 15.02 8.46002 15.55 8.46002 16.12C8.46002 17.79 9.60002 19.2 11.14 19.61L17.69 12.18L15.11 19.74H27.69C30.1 19.74 32.05 17.79 32.05 15.38C32.05 15 32 14.63 31.91 14.29L31.89 14.27Z" fill="#F5F5F5"/>
<path d="M5.34 11.28H11.67C12.05 10.7 12.63 10.27 13.33 10.1C13.72 10.01 14.11 10 14.48 10.07C15.22 8.64 16.43 7.46 17.91 6.79C18.62 6.47 19.37 6.26 20.13 6.18C20.16 6.18 20.18 6.18 20.21 6.18C19.63 5.4 18.7 4.89 17.65 4.89H17.63C17.52 4.21 17.01 3.66 16.35 3.5C16.22 3.47 16.09 3.45 15.95 3.45C15.64 3.45 15.36 3.53 15.11 3.67C14.59 2.27 13.52 1.14 12.17 0.52C11.63 0.27 11.05 0.11 10.43 0.04C10.23 0.02 10.03 0 9.83 0C7.42 0 5.36 1.51 4.56 3.64C4.33 3.6 4.1 3.58 3.86 3.58C2.06 3.57 0.55 4.8 0.12 6.46C0.04 6.77 0 7.09 0 7.43C0 9.12 1.09 10.56 2.61 11.08L7.18 5.9L5.34 11.29V11.28Z" fill="#F5F5F5"/>
</g>
<defs>
<clipPath id="clip0_43_70">
<rect width="32.02" height="28.36" fill="white"/>
</clipPath>
</defs>
</svg>
