<svg width="45" height="32" viewBox="0 0 45 32" fill="none" xmlns="http://www.w3.org/2000/svg">
<path d="M37.431 1.90228C33.2613 1.90228 29.862 5.32709 29.862 9.52806C29.862 10.1684 29.939 10.7893 30.0931 11.3811H32.7028C32.4813 10.8087 32.3465 10.1781 32.3465 9.52806C32.3465 6.70478 34.6287 4.4054 37.431 4.4054C40.2333 4.4054 42.5155 6.70478 42.5155 9.52806C42.5155 10.1781 42.3903 10.8087 42.1688 11.3811C41.4273 13.2827 39.5881 14.641 37.4406 14.641H0V17.1441H37.431C39.6555 17.1441 41.6488 16.1739 43.0355 14.641C43.8541 13.729 44.4607 12.6133 44.7689 11.3811C44.9133 10.7893 45 10.1684 45 9.52806C45 5.31739 41.6007 1.90228 37.431 1.90228Z" fill="white"/>
<path d="M28.8508 19.1441H10.718V21.657H28.8508C30.4783 21.657 31.7976 22.9861 31.7976 24.6258C31.7976 24.781 31.7783 24.9362 31.759 25.0818C31.5376 26.4983 30.3242 27.5849 28.8508 27.5849C27.3775 27.5849 26.1641 26.4983 25.9427 25.0818H23.4389C23.67 27.8856 26.0101 30.0977 28.8508 30.0977C31.6916 30.0977 34.0317 27.8856 34.2628 25.0818C34.2724 24.9265 34.282 24.7713 34.282 24.6258C34.282 23.5294 33.9643 22.5107 33.4057 21.657C32.4428 20.1531 30.7575 19.1441 28.8412 19.1441H28.8508Z" fill="white"/>
<path d="M27.2812 10.3398C27.8301 9.50396 28.1575 8.5066 28.1575 7.43325C28.1575 7.28127 28.1575 7.12929 28.1382 6.97731C27.9071 4.2322 25.5671 2.0665 22.7263 2.0665C19.8855 2.0665 17.5455 4.2322 17.3144 6.97731H19.8277C20.0492 5.59051 21.2626 4.52665 22.7359 4.52665C24.2093 4.52665 25.4226 5.59051 25.6441 6.97731C25.6634 7.12929 25.6826 7.27177 25.6826 7.43325C25.6826 9.03852 24.3634 10.3398 22.7359 10.3398H4.58377V12.8H22.7167C24.633 12.8 26.3182 11.8216 27.2812 10.3398Z" fill="white"/>
</svg>
