<svg width="25" height="32" viewBox="0 0 25 32" fill="none" xmlns="http://www.w3.org/2000/svg">
<path d="M0 19.6215C0 18.1495 0.404858 16.46 1.21457 14.5531C2.02429 12.6461 3.07018 10.7893 4.35223 9.01621C6.98381 5.57031 9.278 2.96079 11.2011 1.20439L12.4663 0C12.888 0.434919 13.3603 0.836382 13.8664 1.20439C14.558 1.90695 15.6208 3.06116 17.0378 4.70047C18.4548 6.33978 19.6862 7.79509 20.6984 9.1333C21.8961 10.8228 22.9251 12.6461 23.7517 14.5698C24.5783 16.4935 25 18.183 25 19.6383C25 21.311 24.6795 22.9002 24.0216 24.4224C23.3637 25.9446 22.4865 27.2661 21.3731 28.3701C20.2598 29.4741 18.9271 30.3607 17.3752 31.0131C15.8232 31.6654 14.1869 32 12.4663 32C10.7794 32 9.17679 31.6822 7.6417 31.0465C6.10661 30.4109 4.77395 29.5578 3.66059 28.4537C2.54723 27.3664 1.65317 26.045 0.995276 24.5227C0.337381 23.0005 0 21.3612 0 19.6215ZM3.81242 14.7203C3.81242 16.1087 4.09919 17.2128 4.68961 18.0491C5.28003 18.8688 6.17409 19.287 7.3718 19.287C8.58637 19.287 9.48043 18.8688 10.0877 18.0491C10.6781 17.2295 10.9818 16.1255 10.9987 14.7203C10.9818 13.3152 10.6781 12.2112 10.0877 11.3748C9.4973 10.5551 8.58637 10.137 7.3718 10.137C6.17409 10.137 5.28003 10.5551 4.68961 11.3748C4.09919 12.2112 3.81242 13.3152 3.81242 14.7203ZM6.46086 14.7203C6.46086 14.4694 6.46086 14.2687 6.46086 14.1349C6.46086 14.001 6.47773 13.817 6.4946 13.5829C6.51147 13.3487 6.52834 13.1647 6.57895 13.0476C6.62956 12.9305 6.66329 12.7799 6.73077 12.6461C6.79825 12.5123 6.88259 12.3952 6.98381 12.345C7.10189 12.2781 7.21997 12.2446 7.3718 12.2446C7.60796 12.2446 7.79352 12.3116 7.92848 12.4454C8.06343 12.5792 8.16464 12.7967 8.21525 13.081C8.26586 13.3821 8.2996 13.6163 8.31646 13.8338C8.33333 14.0512 8.33333 14.3356 8.33333 14.7036C8.33333 15.0883 8.33333 15.3727 8.31646 15.5734C8.2996 15.7742 8.26586 16.0251 8.21525 16.3262C8.16464 16.6106 8.06343 16.828 7.92848 16.9618C7.79352 17.0957 7.60796 17.1626 7.3718 17.1626C7.21997 17.1626 7.10189 17.1291 6.98381 17.0622C6.86572 16.9953 6.78138 16.8949 6.73077 16.7611C6.66329 16.6273 6.61269 16.4767 6.57895 16.3596C6.54521 16.2258 6.51147 16.0418 6.4946 15.8244C6.47773 15.5902 6.46086 15.4062 6.46086 15.2891C6.46086 15.172 6.46086 14.9712 6.46086 14.7203ZM7.45614 27.6843H9.68286L18.1005 9.71877H15.8232L7.45614 27.6843ZM14.7099 22.6827C14.7267 24.0878 15.0472 25.1918 15.6377 26.0282C16.2281 26.8479 17.139 27.2661 18.3367 27.2661C19.5513 27.2661 20.4453 26.8479 21.0358 26.0282C21.6262 25.2086 21.913 24.0878 21.9298 22.6827C21.913 21.2776 21.6262 20.1736 21.0358 19.3539C20.4453 18.5342 19.5513 18.116 18.3367 18.116C17.139 18.116 16.2281 18.5342 15.6377 19.3539C15.0304 20.1736 14.7267 21.2776 14.7099 22.6827ZM17.3583 22.6827C17.3583 22.298 17.3583 22.0136 17.3752 21.8129C17.392 21.6121 17.4258 21.3612 17.4764 21.0601C17.527 20.759 17.6282 20.5583 17.7632 20.4245C17.8981 20.2906 18.0837 20.2237 18.3198 20.2237C18.4717 20.2237 18.6066 20.2572 18.7247 20.3241C18.8428 20.391 18.9271 20.4914 18.9946 20.6419C19.0621 20.7925 19.1127 20.9263 19.1633 21.0434C19.2139 21.1605 19.2308 21.3445 19.2476 21.5787L19.2645 22.114V22.6827C19.2645 22.9503 19.2645 23.1511 19.2645 23.2682L19.2476 23.8035L19.1633 24.3387L18.9946 24.7402L18.7247 25.058L18.3198 25.1584C18.0837 25.1584 17.8981 25.0915 17.7632 24.9577C17.6282 24.8238 17.527 24.6064 17.4764 24.322C17.4258 24.0209 17.392 23.77 17.3752 23.5693C17.3583 23.3685 17.3583 23.0674 17.3583 22.6827Z" fill="white"/>
</svg>
