<svg width="40" height="32" viewBox="0 0 40 32" fill="none" xmlns="http://www.w3.org/2000/svg">
<path d="M40 3.72813C40 1.6696 38.3146 0 36.2343 0C34.154 0 32.4686 1.6696 32.4686 3.72813C32.4686 5.33122 33.4965 6.68645 34.9316 7.21343V10.2362L27.1091 5.88641C26.5259 5.26271 25.8277 4.88989 25.0135 4.88989C24.9595 4.88989 24.9127 4.91206 24.8629 4.92012C24.7774 4.90098 24.6898 4.89392 24.6003 4.89594C24.586 4.89594 24.5728 4.89594 24.5585 4.89695C24.4669 4.90299 24.3754 4.91609 24.2838 4.94531C24.2838 4.94531 24.2664 4.95035 24.2451 4.9574C24.2369 4.96043 24.2217 4.96446 24.2084 4.96849C24.1922 4.97252 24.1718 4.97957 24.1494 4.98662C24.1209 4.99469 24.0863 5.00476 24.0476 5.01584C24.0334 5.01987 24.0161 5.02491 23.9998 5.02995C23.9479 5.04406 23.8889 5.06018 23.8217 5.07832C23.8217 5.07832 23.8186 5.07832 23.8166 5.07932C22.9037 5.32518 20.633 5.87029 16.848 6.36805C15.8557 6.49803 14.7677 6.62599 13.5617 6.74388C6.80881 7.39882 2.46603 4.72062 2.42532 4.69543C2.41209 4.68737 2.39784 4.68535 2.38461 4.67729C1.23658 4.04049 0 3.35028 0 3.35028C0 3.35028 0.553661 5.11358 0.775533 5.90657C0.775533 5.90959 0.775533 5.91261 0.776551 5.91664C0.778586 5.92269 0.791817 5.96904 0.812172 6.04058V6.04259C1.16228 7.289 3.99674 17.8849 1.22029 24.1019C1.21928 24.1039 1.21826 24.1059 1.21724 24.1079C0.616763 25.2717 0.0498702 26.6894 0.0498702 26.6894L2.38665 25.8672C2.43754 25.8531 2.48842 25.841 2.53728 25.8198C2.60445 25.7906 9.23617 22.9844 13.7204 23.4187C14.3891 23.4842 15.0018 23.5275 15.5789 23.5557C16.8338 23.6142 17.9075 23.5849 18.9314 23.4771C19.4178 23.4257 19.8962 23.3552 20.3766 23.2696C20.4041 23.2645 20.4325 23.2585 20.461 23.2534C20.6666 23.2162 20.8732 23.1759 21.0809 23.1325C21.1338 23.1215 21.1877 23.1094 21.2407 23.0973C21.4259 23.058 21.6132 23.0157 21.8025 22.9713C21.8676 22.9562 21.9337 22.9401 21.9999 22.924C22.1821 22.8796 22.3663 22.8353 22.5536 22.7869C22.6268 22.7688 22.6991 22.7496 22.7724 22.7315C22.9617 22.6831 23.1561 22.6318 23.3525 22.5794C23.4268 22.5602 23.5021 22.5401 23.5774 22.5199C23.7881 22.4635 24.0069 22.403 24.2278 22.3426C24.2939 22.3244 24.358 22.3073 24.4242 22.2882C24.7102 22.2096 25.0023 22.129 25.3076 22.0433L25.6241 21.9557C25.7402 21.9234 25.843 21.87 25.9386 21.8065C26.3987 21.6272 26.817 21.334 27.1844 20.9229L34.9305 16.5489V32H37.535V7.21343C38.97 6.68645 39.998 5.33122 39.998 3.72813H40ZM14.4756 21.2997C13.8354 19.5817 13.3805 17.4204 13.1291 14.7916C12.9062 12.4822 13.0925 10.5204 13.4283 8.93139C13.5474 8.92131 13.6594 8.9203 13.7795 8.90821C14.5692 8.83063 15.3041 8.75002 16.0063 8.66639C15.6104 10.1486 15.3264 12.1305 15.5605 14.5629C15.7875 16.9307 16.2445 19.5666 17.136 21.4025C16.3381 21.4176 15.471 21.3833 14.4756 21.2997ZM25.0145 19.8185C24.9046 19.8185 24.8059 19.8508 24.7061 19.88C23.8512 19.3792 22.7958 16.9368 22.7958 13.4424C22.7958 10.1586 23.726 7.82504 24.5484 7.13786C24.6898 7.09755 24.7886 7.06934 24.8598 7.04717C24.9087 7.05826 24.9606 7.06632 25.0145 7.06632C25.6302 7.06632 27.0704 9.23568 27.0704 13.4424C27.0704 17.6492 25.6292 19.8185 25.0145 19.8185ZM28.6774 17.9444C29.0682 16.5821 29.2687 15.0092 29.2687 13.4424C29.2687 11.8756 29.0632 10.2524 28.6601 8.87395L34.9326 12.3623V14.4127L28.6774 17.9444Z" fill="white"/>
</svg>
