<svg width="26" height="29" viewBox="0 0 26 29" fill="none" xmlns="http://www.w3.org/2000/svg">
<path d="M24.79 9.85L25.14 8.84L23.77 8.37L25.16 7.57L24.91 7.14L24.66 6.7L23.27 7.5L23.54 6.07L22.5 5.87L22.05 8.21L20.99 8.82L21.59 5.7L20.54 5.5L19.76 9.53L18.82 10.07L17.86 9.88L17.7 10.72L16.63 11.33L16.94 9.71L15.89 9.51L15.4 12.04L13.36 13.22C13.28 13.15 13.19 13.09 13.1 13.04V10.69L15.05 9L14.35 8.19L13.1 9.27V8.04L13.74 7.48L13.1 6.74V5.65L16.2 2.96L15.5 2.15L13.1 4.23V3L14.9 1.44L14.2 0.63L13.1 1.58V0H12.6H12.1V1.6L11 0.65L10.3 1.45L12.1 3.01V4.24L9.7 2.15L9 2.96L12.1 5.65V6.74L11.46 7.48L12.1 8.04V9.27L10.85 8.19L10.15 8.99L12.1 10.68V12.93C12.05 12.95 11.99 12.96 11.94 12.98C11.86 13.02 11.78 13.06 11.71 13.11L9.78 11.99L9.29 9.46L8.24 9.66L8.55 11.28L7.49 10.66L7.33 9.82L6.37 10L5.43 9.46L4.65 5.43L3.6 5.63L4.2 8.75L3.14 8.14L2.69 5.8L1.64 6L1.92 7.43L0.53 6.63L0.28 7.06L0.03 7.5L1.42 8.3L0.05 8.78L0.4 9.79L2.65 9.01L3.71 9.63L0.7 10.67L1.05 11.68L4.93 10.34L5.87 10.88L6.19 11.81L7 11.53L8.06 12.14L6.5 12.68L6.85 13.69L9.29 12.85L11.18 13.94C11.15 14.1 11.15 14.26 11.18 14.42L9.27 15.52L6.84 14.68L6.49 15.69L8.05 16.23L6.99 16.84L6.18 16.56L5.86 17.49L4.92 18.03L1.04 16.69L0.69 17.7L3.7 18.74L2.64 19.35L0.39 18.57L0.01 19.6L1.39 20.08L0 20.88L0.25 21.32L0.5 21.76L1.89 20.96L1.62 22.39L2.66 22.59L3.11 20.25L4.17 19.64L3.57 22.76L4.62 22.96L5.4 18.93L6.34 18.39L7.3 18.58L7.46 17.74L8.52 17.12L8.21 18.74L9.26 18.94L9.75 16.41L11.69 15.29C11.8 15.37 11.92 15.43 12.05 15.47V17.76L10.1 19.45L10.8 20.25L12.05 19.17V20.4L11.41 20.96L12.05 21.7V22.79L8.95 25.48L9.65 26.29L12.05 24.21V25.44L10.25 27L10.95 27.81L12.05 26.86V28.46H13.06V26.86L14.16 27.82L14.86 27.01L13.06 25.45V24.22L15.46 26.31L16.16 25.51L13.06 22.82V21.73L13.7 20.99L13.06 20.43V19.2L14.31 20.28L15.01 19.48L13.06 17.79V15.43C13.15 15.38 13.23 15.33 13.31 15.27L15.38 16.47L15.87 19L16.92 18.8L16.61 17.18L17.67 17.8L17.83 18.64L18.79 18.45L19.73 18.99L20.51 23.02L21.56 22.82L20.96 19.7L22.02 20.32L22.47 22.66L23.52 22.46L23.25 21.03L24.64 21.83L24.89 21.4L25.14 20.96L23.75 20.16L25.13 19.68L24.78 18.67L22.53 19.45L21.47 18.83L24.48 17.79L24.13 16.78L20.25 18.12L19.31 17.58L18.99 16.65L18.18 16.93L17.12 16.31L18.68 15.77L18.33 14.76L15.89 15.6L13.8 14.39C13.81 14.31 13.81 14.22 13.8 14.14L15.9 12.93L18.33 13.77L18.68 12.76L17.12 12.22L18.18 11.61L18.99 11.89L19.31 10.96L20.25 10.42L24.13 11.76L24.48 10.75L21.47 9.71L22.53 9.1L24.78 9.88L24.79 9.85Z" fill="#F5F5F5"/>
</svg>
