<svg width="35" height="20" viewBox="0 0 35 20" fill="none" xmlns="http://www.w3.org/2000/svg">
<g clip-path="url(#clip0_10_131)">
<path d="M29.16 7.67999C28.76 6.59999 27.84 5.76999 26.68 5.48999C26.1 5.34999 25.53 5.35999 24.99 5.48999C24.01 3.46999 22.33 1.80999 20.27 0.86999C19.31 0.42999 18.31 0.15999 17.28 0.0499902C16.89 0.00999024 16.56 -0.0100098 16.24 -0.0100098C12.47 -0.0100098 9.01998 2.21999 7.43998 5.60999C4.06998 5.32999 1.03998 7.52999 0.19998 10.75C0.0499805 11.31 -0.0200195 11.9 -0.0200195 12.48C-0.0200195 16.28 3.06998 19.37 6.86998 19.37H28.51C31.74 19.37 34.38 16.74 34.38 13.5C34.38 10.48 32.08 7.97999 29.14 7.66999L29.16 7.67999ZM28.53 17.67H6.88998C4.02998 17.67 1.70998 15.35 1.70998 12.49C1.70998 12.05 1.76998 11.61 1.86998 11.19C2.45998 8.90999 4.51998 7.30999 6.88998 7.30999C7.19998 7.30999 7.51998 7.33999 7.83998 7.39999L8.53998 7.52999L8.78998 6.85999C9.95998 3.77999 12.96 1.70999 16.25 1.70999C16.51 1.70999 16.78 1.72999 17.1 1.75999C17.94 1.84999 18.77 2.07999 19.56 2.43999C21.48 3.30999 22.99 4.93999 23.73 6.89999L24.08 7.83999L24.95 7.33999C25.35 7.10999 25.79 7.03999 26.27 7.14999C26.99 7.31999 27.52 7.89999 27.64 8.62999L27.75 9.35999H28.54C30.82 9.36999 32.67 11.23 32.67 13.51C32.67 15.79 30.81 17.67 28.51 17.67H28.53Z" fill="white"/>
</g>
<defs>
<clipPath id="clip0_10_131">
<rect width="34.39" height="19.38" fill="white"/>
</clipPath>
</defs>
</svg>
