<svg width="35" height="26" viewBox="0 0 35 26" fill="none" xmlns="http://www.w3.org/2000/svg">
<g clip-path="url(#clip0_10_121)">
<path d="M26.84 3.47999C27.27 3.60999 27.73 3.37999 27.86 2.94999L28.46 1.05999C28.55 0.769993 28.47 0.479993 28.28 0.269993C28.19 0.169993 28.07 0.0799929 27.93 0.0399929C27.5 -0.100007 27.04 0.139993 26.91 0.569993L26.31 2.45999C26.29 2.52999 26.28 2.58999 26.28 2.65999C26.26 3.01999 26.48 3.36999 26.84 3.48999V3.47999Z" fill="white"/>
<path d="M31.21 6.01001L32.8 4.83001C33.16 4.56001 33.24 4.05001 32.97 3.69001C32.95 3.67001 32.93 3.65001 32.91 3.63001C32.63 3.33001 32.17 3.27001 31.83 3.52001L30.24 4.70001C30.04 4.85001 29.93 5.07001 29.91 5.30001C29.9 5.48001 29.95 5.68001 30.06 5.84001C30.33 6.20001 30.84 6.28001 31.2 6.01001H31.21Z" fill="white"/>
<path d="M34.69 9.06999C34.54 8.90999 34.32 8.79999 34.08 8.79999H32.1C31.67 8.81999 31.32 9.15999 31.3 9.57999C31.3 9.59999 31.3 9.61999 31.3 9.63999C31.3 10.09 31.67 10.45 32.12 10.45H34.1C34.55 10.43 34.91 10.06 34.91 9.60999C34.91 9.39999 34.83 9.20999 34.69 9.06999Z" fill="white"/>
<path d="M16.85 4.85L18.46 6C18.83 6.26 19.34 6.18 19.6 5.81C19.83 5.49 19.79 5.06 19.54 4.79C19.5 4.75 19.46 4.71 19.41 4.68L17.8 3.53C17.43 3.27 16.93 3.35 16.66 3.72C16.57 3.85 16.52 4 16.51 4.15C16.49 4.42 16.61 4.69 16.85 4.86V4.85Z" fill="white"/>
<path d="M21.64 2.45999L21.81 2.95999C21.95 3.38999 22.41 3.61999 22.84 3.47999C23.27 3.33999 23.5 2.87999 23.36 2.44999L22.73 0.569995C22.73 0.569995 22.7 0.499995 22.68 0.469995C22.5 0.109995 22.09 -0.0700055 21.7 0.0599945C21.27 0.199995 21.04 0.659995 21.18 1.08999L21.64 2.46999V2.45999Z" fill="white"/>
<path d="M32.8 14.41L31.19 13.26C30.82 13 30.32 13.08 30.05 13.45C29.96 13.58 29.91 13.73 29.9 13.88C29.89 14.15 30 14.42 30.24 14.59L31.85 15.74C32.22 16 32.72 15.92 32.99 15.55C33.22 15.23 33.18 14.8 32.93 14.53C32.89 14.49 32.85 14.45 32.8 14.42V14.41Z" fill="white"/>
<path d="M25.97 14.75C25.59 13.79 24.77 13.06 23.73 12.81C23.24 12.69 22.74 12.69 22.26 12.8C21.38 11.02 19.89 9.57001 18.07 8.74001C17.21 8.35001 16.31 8.10001 15.4 8.00001C15.05 7.96001 14.76 7.95001 14.47 7.95001C11.12 7.95001 8.04998 9.92001 6.61998 12.92C3.62998 12.71 0.91998 14.67 0.17998 17.55C0.0499805 18.05 -0.0200195 18.58 -0.0200195 19.11C-0.0200195 22.53 2.75998 25.31 6.17998 25.31H25.33C28.25 25.31 30.62 22.93 30.62 20.02C30.62 17.32 28.58 15.08 25.96 14.77L25.97 14.75ZM25.34 23.58H6.19998C3.72998 23.58 1.70998 21.57 1.70998 19.09C1.70998 18.71 1.75998 18.33 1.84998 17.96C2.35998 15.98 4.14998 14.6 6.18998 14.6C6.45998 14.6 6.73998 14.63 7.00998 14.68L7.70998 14.81L7.95998 14.14C8.97998 11.45 11.6 9.65001 14.47 9.65001C14.69 9.65001 14.93 9.66001 15.21 9.69001C15.94 9.77001 16.66 9.97001 17.35 10.28C19.02 11.04 20.35 12.46 20.99 14.17L21.34 15.11L22.21 14.61C22.54 14.42 22.92 14.36 23.31 14.46C23.91 14.6 24.35 15.09 24.45 15.69L24.56 16.41H25.35C27.31 16.42 28.9 18.02 28.9 19.99C28.9 21.96 27.29 23.57 25.32 23.57L25.34 23.58Z" fill="white"/>
<path d="M22.74 11.86C23.14 11.84 23.54 11.87 23.94 11.97C25.06 12.24 26.01 12.97 26.56 13.97C26.74 14.01 26.92 14.05 27.09 14.1C28.73 13.27 29.85 11.58 29.85 9.62001C29.85 8.06001 29.13 6.66001 28.01 5.74001C27.14 5.03001 26.04 4.60001 24.83 4.60001C22.35 4.60001 20.29 6.40001 19.89 8.77001C21.05 9.57001 22.03 10.62 22.75 11.85L22.74 11.86ZM21.81 6.84001C22.39 6.18001 23.18 5.94001 23.58 6.29001C23.98 6.64001 23.83 7.46001 23.25 8.11001C22.67 8.77001 21.88 9.01001 21.48 8.66001C21.08 8.31001 21.23 7.49001 21.81 6.84001Z" fill="white"/>
</g>
<defs>
<clipPath id="clip0_10_121">
<rect width="34.91" height="25.29" fill="white"/>
</clipPath>
</defs>
</svg>
