<svg width="25" height="43" viewBox="0 0 25 43" fill="none" xmlns="http://www.w3.org/2000/svg">
<path d="M5.80774 0C5.5426 0 5.27747 0.0505021 5.02496 0.126255C3.95179 0.454518 3.16901 1.43931 3.16901 2.62611V12.6886H8.42122V2.62611C8.42122 1.17417 7.24705 0 5.79511 0H5.80774Z" fill="white"/>
<path d="M8.43384 31.4249V29.0008H5.83299V27.9529H8.43384V26.0212H5.83299V24.9607H8.43384V23.0289H5.83299V21.981H8.43384V20.0493H5.83299V19.0014H8.43384V17.0697H5.83299V16.0218H8.43384V14.5699H3.18163V31.4502C1.30043 32.4097 0 34.3667 0 36.6266C0 39.1265 1.57819 41.2476 3.78765 42.0682C4.41893 42.2955 5.08808 42.4344 5.80774 42.4344C9.01462 42.4344 11.6155 39.8335 11.6155 36.6266C11.6155 34.3667 10.315 32.4097 8.43384 31.4502V31.4249Z" fill="white"/>
<path d="M20.7184 32.6495C21.2613 32.6495 21.7411 32.5612 22.1325 32.3718C22.5239 32.1824 22.9405 31.892 23.3698 31.488L24.3925 32.5359C23.3951 33.6343 22.183 34.1899 20.7689 34.1899C19.3549 34.1899 18.1681 33.7353 17.2338 32.8137C16.2995 31.9046 15.8324 30.7431 15.8324 29.3417C15.8324 27.9402 16.3121 26.7787 17.2591 25.8444C18.2186 24.9101 19.418 24.443 20.8826 24.443C22.3471 24.443 23.5592 24.9859 24.5313 26.059L23.5213 27.1574C23.0668 26.7282 22.6501 26.4252 22.2461 26.261C21.8421 26.0969 21.375 26.0085 20.8447 26.0085C19.8978 26.0085 19.1024 26.3115 18.4458 26.9302C17.8019 27.5488 17.4737 28.3316 17.4737 29.2785C17.4737 30.2254 17.7893 31.0335 18.4332 31.6774C19.0771 32.3213 19.8347 32.6369 20.7058 32.6369L20.7184 32.6495Z" fill="white"/>
<path d="M13.7239 22.3598C12.5624 22.3598 11.6155 23.3067 11.6155 24.4682C11.6155 25.6298 12.5624 26.5767 13.7239 26.5767C14.8855 26.5767 15.8198 25.6298 15.8198 24.4682C15.8198 23.3067 14.8729 22.3598 13.7239 22.3598ZM13.7239 25.4278C13.1937 25.4278 12.7644 24.9985 12.7644 24.4682C12.7644 23.938 13.1937 23.5087 13.7239 23.5087C14.2542 23.5087 14.6835 23.938 14.6835 24.4682C14.6835 24.9985 14.2542 25.4278 13.7239 25.4278Z" fill="white"/>
</svg>
