<svg width="29" height="28" viewBox="0 0 29 28" fill="none" xmlns="http://www.w3.org/2000/svg">
<g clip-path="url(#clip0_10_108)">
<path d="M18.6 8.06C17.38 7.06 15.83 6.47 14.14 6.47C10.25 6.47 7.09998 9.62 7.09998 13.51C7.09998 14.96 7.53998 16.31 8.28998 17.43C9.54998 19.31 11.7 20.55 14.14 20.55C18.03 20.55 21.18 17.4 21.18 13.51C21.18 11.31 20.17 9.35 18.6 8.06ZM9.90998 9.6C10.73 8.68 11.84 8.33 12.39 8.82C12.95 9.31 12.74 10.46 11.92 11.38C11.11 12.3 9.98998 12.65 9.43998 12.16C8.87998 11.67 9.08998 10.52 9.90998 9.6Z" fill="white"/>
<path d="M6.71001 18.74C6.32001 18.31 5.67001 18.24 5.19001 18.59L2.95001 20.24C2.67001 20.45 2.51001 20.76 2.49001 21.09C2.47001 21.35 2.54001 21.62 2.71001 21.84C3.09001 22.35 3.80001 22.46 4.31001 22.08L6.55001 20.43C7.06001 20.05 7.17001 19.34 6.79001 18.83C6.77001 18.8 6.74001 18.77 6.71001 18.74Z" fill="white"/>
<path d="M5.07001 13.49C5.07001 13.19 4.95001 12.93 4.77001 12.73C4.56001 12.5 4.26001 12.35 3.92001 12.36L1.14001 12.38C0.53001 12.38 0.0500098 12.86 0.0100098 13.45C0.0100098 13.48 0.0100098 13.5 0.0100098 13.53C0.0100098 14.16 0.53001 14.67 1.16001 14.66L3.94001 14.64C4.57001 14.64 5.08001 14.12 5.08001 13.49H5.07001Z" fill="white"/>
<path d="M16.96 4.88C17.56 5.07 18.2 4.74 18.4 4.13L19.24 1.48C19.37 1.08 19.26 0.66 18.99 0.37C18.86 0.23 18.69 0.11 18.49 0.0500004C17.89 -0.14 17.25 0.19 17.05 0.8L16.21 3.45C16.18 3.54 16.17 3.63 16.16 3.72C16.13 4.23 16.44 4.72 16.95 4.88H16.96Z" fill="white"/>
<path d="M23.09 8.43L25.33 6.78C25.84 6.41 25.95 5.69 25.57 5.18C25.55 5.15 25.52 5.12 25.49 5.09C25.1 4.66 24.45 4.59 23.97 4.94L21.73 6.59C21.45 6.8 21.29 7.11 21.27 7.44C21.25 7.7 21.32 7.97 21.49 8.19C21.86 8.7 22.58 8.81 23.09 8.43Z" fill="white"/>
<path d="M27.98 12.73C27.77 12.5 27.47 12.35 27.13 12.36L24.35 12.38C23.75 12.38 23.26 12.86 23.22 13.45C23.22 13.48 23.22 13.5 23.22 13.53C23.22 14.16 23.74 14.67 24.37 14.66L27.15 14.64C27.78 14.64 28.29 14.12 28.28 13.49C28.28 13.19 28.16 12.93 27.98 12.73Z" fill="white"/>
<path d="M18.37 22.87C18.35 22.82 18.33 22.77 18.31 22.73C18.06 22.23 17.48 21.97 16.93 22.15C16.33 22.35 16.01 23 16.21 23.6L16.86 25.54L17.09 26.24C17.29 26.84 17.94 27.16 18.54 26.96C19.14 26.76 19.46 26.11 19.26 25.51L18.38 22.87H18.37Z" fill="white"/>
<path d="M11.32 22.13C10.72 21.94 10.08 22.27 9.88998 22.88L9.04998 25.53C9.01998 25.62 9.00998 25.71 8.99998 25.8C8.96998 26.31 9.27998 26.8 9.78998 26.96C10.39 27.15 11.04 26.82 11.23 26.21L12.07 23.56C12.2 23.16 12.09 22.74 11.82 22.45C11.69 22.31 11.52 22.19 11.32 22.13Z" fill="white"/>
<path d="M6.55001 6.57L4.29001 4.95C3.78001 4.58 3.06001 4.7 2.70001 5.21C2.57001 5.39 2.50001 5.6 2.49001 5.81C2.47001 6.19 2.63001 6.57 2.96001 6.81L5.22001 8.43C5.73001 8.8 6.45001 8.68 6.82001 8.17C7.14001 7.72 7.09001 7.12 6.73001 6.73C6.68001 6.67 6.62001 6.62 6.55001 6.57Z" fill="white"/>
<path d="M9.67999 3.45L9.90999 4.15C10.11 4.75 10.76 5.07 11.36 4.87C11.96 4.67 12.28 4.02 12.08 3.42L11.2 0.78C11.18 0.73 11.16 0.68 11.14 0.64C10.89 0.14 10.31 -0.12 9.75999 0.0600004C9.15999 0.26 8.83999 0.91 9.03999 1.51L9.68999 3.45H9.67999Z" fill="white"/>
<path d="M25.33 20.21L23.07 18.59C22.56 18.22 21.84 18.34 21.47 18.86C21.34 19.04 21.27 19.25 21.26 19.46C21.24 19.84 21.4 20.22 21.73 20.46L23.99 22.08C24.5 22.45 25.22 22.33 25.59 21.81C25.91 21.36 25.86 20.76 25.5 20.37C25.45 20.31 25.39 20.26 25.32 20.21H25.33Z" fill="white"/>
</g>
<defs>
<clipPath id="clip0_10_108">
<rect width="28.28" height="27.02" fill="white"/>
</clipPath>
</defs>
</svg>
