<svg width="34" height="28" viewBox="0 0 34 28" fill="none" xmlns="http://www.w3.org/2000/svg">
<g clip-path="url(#clip0_10_135)">
<path d="M7.16001 15.52C7.22001 15.31 7.24001 14.98 7.25001 14.64C7.27001 13.9 7.21001 13.08 7.21001 13.08C7.21001 13.08 5.78001 14.22 5.43001 14.82C5.32001 15.02 5.26001 15.2 5.23001 15.36C5.16001 15.85 5.46001 16.18 5.81001 16.33C6.29001 16.52 6.92001 16.34 7.14001 15.52H7.16001ZM5.83001 14.75C5.95001 14.57 6.16001 14.49 6.28001 14.57C6.40001 14.65 6.40001 14.87 6.28001 15.05C6.16001 15.23 5.96001 15.32 5.83001 15.23C5.71001 15.15 5.71001 14.93 5.83001 14.75Z" fill="white"/>
<path d="M0.209977 16.12C0.0999773 16.32 0.0399773 16.5 0.00997728 16.66C-0.0600227 17.15 0.239977 17.48 0.589977 17.63C1.05998 17.82 1.69998 17.64 1.91998 16.82C1.97998 16.61 1.99998 16.28 2.00998 15.94C2.02998 15.2 1.96998 14.38 1.96998 14.38C1.96998 14.38 0.539977 15.52 0.199977 16.12H0.209977ZM0.589977 16.06C0.709977 15.88 0.909977 15.8 1.03998 15.88C1.15998 15.96 1.15998 16.18 1.03998 16.37C0.919977 16.55 0.719977 16.63 0.589977 16.55C0.469977 16.47 0.469977 16.25 0.589977 16.07V16.06Z" fill="white"/>
<path d="M6.32997 20.73C6.21997 20.93 6.15997 21.11 6.12997 21.27C6.05997 21.76 6.35997 22.09 6.70997 22.24C7.17997 22.43 7.81997 22.25 8.03997 21.43C8.09997 21.22 8.12997 20.89 8.12997 20.55C8.14997 19.81 8.08997 18.99 8.08997 18.99C8.08997 18.99 6.65997 20.13 6.31997 20.74L6.32997 20.73ZM6.71997 20.67C6.83997 20.49 7.04997 20.41 7.16997 20.49C7.28997 20.57 7.28997 20.79 7.16997 20.98C7.04997 21.16 6.83997 21.24 6.71997 21.16C6.59997 21.08 6.59997 20.86 6.71997 20.67Z" fill="white"/>
<path d="M10.03 25.27C9.91998 25.47 9.85998 25.65 9.82998 25.82C9.75998 26.31 10.06 26.64 10.41 26.79C10.89 26.98 11.52 26.8 11.74 25.98C11.8 25.77 11.82 25.44 11.83 25.1C11.85 24.36 11.79 23.54 11.79 23.54C11.79 23.54 10.36 24.68 10.01 25.28L10.03 25.27ZM10.41 25.21C10.53 25.03 10.74 24.95 10.86 25.03C10.98 25.11 10.98 25.33 10.86 25.51C10.74 25.69 10.54 25.77 10.41 25.69C10.29 25.61 10.29 25.39 10.41 25.21Z" fill="white"/>
<path d="M16.04 23.11C15.93 23.31 15.87 23.49 15.84 23.65C15.77 24.14 16.07 24.47 16.42 24.62C16.9 24.81 17.53 24.63 17.75 23.81C17.81 23.6 17.83 23.27 17.84 22.93C17.86 22.19 17.8 21.37 17.8 21.37C17.8 21.37 16.37 22.51 16.03 23.11H16.04ZM16.43 23.05C16.55 22.87 16.76 22.79 16.88 22.87C17 22.95 17 23.17 16.88 23.35C16.76 23.53 16.55 23.62 16.43 23.53C16.31 23.45 16.31 23.23 16.43 23.05Z" fill="white"/>
<path d="M20.28 26.39C20.17 26.59 20.11 26.77 20.08 26.93C20.02 27.42 20.31 27.75 20.66 27.9C21.14 28.09 21.77 27.92 21.99 27.09C22.05 26.88 22.07 26.55 22.08 26.21C22.1 25.47 22.04 24.65 22.04 24.65C22.04 24.65 20.61 25.79 20.27 26.39H20.28ZM20.67 26.33C20.79 26.15 20.99 26.07 21.12 26.15C21.24 26.23 21.24 26.45 21.12 26.63C21 26.81 20.8 26.9 20.67 26.81C20.55 26.72 20.55 26.51 20.67 26.32V26.33Z" fill="white"/>
<path d="M27.67 21.59C27.67 21.59 26.24 22.73 25.9 23.33C25.79 23.53 25.73 23.71 25.7 23.87C25.64 24.36 25.93 24.69 26.28 24.84C26.75 25.04 27.39 24.85 27.61 24.03C27.67 23.82 27.69 23.49 27.7 23.15C27.72 22.41 27.66 21.59 27.66 21.59H27.67ZM26.28 23.27C26.4 23.09 26.61 23.01 26.73 23.09C26.85 23.17 26.85 23.39 26.73 23.57C26.61 23.75 26.41 23.83 26.28 23.75C26.16 23.67 26.16 23.45 26.28 23.27Z" fill="white"/>
<path d="M33.4 14.63C32.9 12.71 31.15 11.29 29.08 11.29C28.87 11.29 28.66 11.31 28.45 11.34C28.39 11.34 28.33 11.35 28.26 11.37C27.49 9.33999 25.74 7.79999 23.59 7.30999C23.13 7.20999 22.65 7.14999 22.15 7.14999C21.91 7.14999 21.68 7.16999 21.45 7.18999C20.74 7.26999 20.06 7.45999 19.44 7.73999C17.87 8.45999 16.63 9.76999 16.03 11.39C15.74 11.23 15.41 11.13 15.05 11.13C14.89 11.13 14.73 11.15 14.58 11.19C13.81 11.38 13.22 12.01 13.09 12.81C13.09 12.81 13.07 12.81 13.06 12.81C11.59 12.81 10.32 13.67 9.71998 14.91C9.48998 15.4 9.34998 15.94 9.34998 16.52C9.34998 18.57 11.01 20.23 13.06 20.23H29.07C31.54 20.23 33.54 18.23 33.54 15.76C33.54 15.37 33.49 15 33.4 14.64V14.63Z" fill="white"/>
<path d="M14.39 10.36C14.79 10.26 15.19 10.25 15.57 10.33C16.32 8.86001 17.57 7.66001 19.09 6.97001C19.82 6.64001 20.58 6.43001 21.37 6.34001C21.4 6.34001 21.42 6.34001 21.45 6.34001C20.85 5.54001 19.9 5.02001 18.83 5.02001H18.81C18.7 4.32001 18.18 3.76001 17.49 3.59001C17.36 3.56001 17.22 3.54001 17.08 3.54001C16.77 3.54001 16.47 3.62001 16.21 3.77001C15.67 2.33001 14.58 1.17001 13.19 0.54001C12.64 0.29001 12.04 0.12001 11.41 0.0500098C11.21 0.0300098 11 0.0100098 10.79 0.0100098C8.32002 0.0100098 6.21002 1.56001 5.38002 3.74001C5.15002 3.70001 4.91002 3.67001 4.66002 3.67001C2.82002 3.67001 1.28002 4.93001 0.840022 6.63001C0.760022 6.95001 0.710022 7.28001 0.710022 7.62001C0.710022 9.80001 2.48002 11.57 4.66002 11.57H12.67C13.06 10.98 13.65 10.53 14.37 10.36H14.39Z" fill="white"/>
</g>
<defs>
<clipPath id="clip0_10_135">
<rect width="33.54" height="27.97" fill="white"/>
</clipPath>
</defs>
</svg>
